<svg width="32" height="32" viewBox="0 0 32 32" xmlns="http://www.w3.org/2000/svg">
  <!-- Dark background circle -->
  <circle cx="16" cy="16" r="16" fill="#2D3748"/>
  
  <!-- White "C" letter -->
  <path d="M 20.5 9.5 
           C 22.5 10.5 23.5 12.5 23.5 16 
           C 23.5 19.5 22.5 21.5 20.5 22.5 
           C 19.5 23 18 23 16.5 23 
           C 13 23 10.5 21.5 9 18.5 
           C 8.5 17.5 8.5 16.5 8.5 16 
           C 8.5 15.5 8.5 14.5 9 13.5 
           C 10.5 10.5 13 9 16.5 9 
           C 18 9 19.5 9 20.5 9.5 
           L 19.5 12 
           C 18.5 11.5 17.5 11.5 16.5 11.5 
           C 14.5 11.5 13 12.5 12 14 
           C 11.5 14.5 11.5 15.5 11.5 16 
           C 11.5 16.5 11.5 17.5 12 18 
           C 13 19.5 14.5 20.5 16.5 20.5 
           C 17.5 20.5 18.5 20.5 19.5 20 
           L 20.5 22.5 
           Z" fill="white"/>
</svg>